# xmcd
#
# Track frame offsets: 
#        150
#        11361
#        24419
#        37169
#        49824
#        60822
#        72589
#        84641
#        96906
#        110935
#        125237
#        136732
#        150856
#        165584
#        179661
#        194780
#        209271
#        223419
#
# Disc length: 3171 seconds
#
# Revision: 1
# Processed by: cddbd v1.5.2PL0 Copyright (c) Steve Scherf et al.
# Submitted via: ExactAudioCopy v0.99pb4
#
DISCID=0d0c6112
DTITLE=Henry Red Allen - Quadromania [CD2]
DYEAR=2005
DGENRE=Jazz
TTITLE0=Till The Clock Strikes Three
TTITLE1=You'll Never Go To Heaven (If You Break My Heart)
TTITLE2=The Miller's Daughter, Marianne 
TTITLE3=The Merry-Go-Round Broke Down
TTITLE4=Have You Ever Been In Heaven?
TTITLE5=(Is It) Love Or Infatuation?
TTITLE6=I Owe You
TTITLE7=Can I Forget You? 
TTITLE8=Canal Street Blues 
TTITLE9=Shim Me Sha Wabble 
TTITLE10=King Porter Stomp 
TTITLE11=K.K. Boogie
TTITLE12=Sometimes I'm Happy
TTITLE13=Ol' Man River
TTITLE14=A Sheridan 'Square'
TTITLE15=Siesta At The Fiesta 
TTITLE16=Jack The Bellboy
TTITLE17=Indiana
EXTD=
EXTT0=
EXTT1=
EXTT2=
EXTT3=
EXTT4=
EXTT5=
EXTT6=
EXTT7=
EXTT8=
EXTT9=
EXTT10=
EXTT11=
EXTT12=
EXTT13=
EXTT14=
EXTT15=
EXTT16=
EXTT17=
PLAYORDER=
